<svg width="100" height="100" viewBox="0 0 100 100" fill="none" xmlns="http://www.w3.org/2000/svg">
<mask id="mask0_85_82" style="mask-type:alpha" maskUnits="userSpaceOnUse" x="0" y="0" width="100" height="100">
<rect width="100" height="100" fill="#D9D9D9"/>
</mask>
<g mask="url(#mask0_85_82)">
<path d="M33.333 70.8337C32.1525 70.8337 31.1622 70.4337 30.3622 69.6337C29.565 68.8364 29.1663 67.8475 29.1663 66.667C29.1663 65.4864 29.565 64.4962 30.3622 63.6962C31.1622 62.8989 32.1525 62.5003 33.333 62.5003H54.1663C53.1941 61.3198 52.4136 60.035 51.8247 58.6462C51.233 57.2573 50.7636 55.7642 50.4163 54.167H41.6663C40.4858 54.167 39.4969 53.767 38.6997 52.967C37.8997 52.1698 37.4997 51.1809 37.4997 50.0003C37.4997 48.8198 37.8997 47.8295 38.6997 47.0295C39.4969 46.2323 40.4858 45.8337 41.6663 45.8337H50.4163C50.7636 44.2364 51.233 42.7434 51.8247 41.3545C52.4136 39.9656 53.1941 38.6809 54.1663 37.5003H16.6663C15.4858 37.5003 14.4969 37.1003 13.6997 36.3003C12.8997 35.5031 12.4997 34.5142 12.4997 33.3337C12.4997 32.1531 12.8997 31.1628 13.6997 30.3628C14.4969 29.5656 15.4858 29.167 16.6663 29.167H70.833C76.5969 29.167 81.5108 31.1975 85.5747 35.2587C89.6358 39.3225 91.6664 44.2364 91.6664 50.0003C91.6664 55.7642 89.6358 60.6767 85.5747 64.7378C81.5108 68.8017 76.5969 70.8337 70.833 70.8337H33.333ZM70.833 62.5003C74.3052 62.5003 77.2566 61.285 79.6872 58.8545C82.1177 56.4239 83.333 53.4725 83.333 50.0003C83.333 46.5281 82.1177 43.5767 79.6872 41.1462C77.2566 38.7156 74.3052 37.5003 70.833 37.5003C67.3608 37.5003 64.4094 38.7156 61.9788 41.1462C59.5483 43.5767 58.333 46.5281 58.333 50.0003C58.333 53.4725 59.5483 56.4239 61.9788 58.8545C64.4094 61.285 67.3608 62.5003 70.833 62.5003ZM12.4997 54.167C11.3191 54.167 10.3302 53.767 9.53301 52.967C8.73301 52.1698 8.33301 51.1809 8.33301 50.0003C8.33301 48.8198 8.73301 47.8295 9.53301 47.0295C10.3302 46.2323 11.3191 45.8337 12.4997 45.8337H29.1663C30.3469 45.8337 31.3372 46.2323 32.1372 47.0295C32.9344 47.8295 33.333 48.8198 33.333 50.0003C33.333 51.1809 32.9344 52.1698 32.1372 52.967C31.3372 53.767 30.3469 54.167 29.1663 54.167H12.4997ZM16.6663 70.8337C15.4858 70.8337 14.4969 70.4337 13.6997 69.6337C12.8997 68.8364 12.4997 67.8475 12.4997 66.667C12.4997 65.4864 12.8997 64.4962 13.6997 63.6962C14.4969 62.8989 15.4858 62.5003 16.6663 62.5003H20.833C22.0136 62.5003 23.0038 62.8989 23.8038 63.6962C24.6011 64.4962 24.9997 65.4864 24.9997 66.667C24.9997 67.8475 24.6011 68.8364 23.8038 69.6337C23.0038 70.4337 22.0136 70.8337 20.833 70.8337H16.6663Z" fill="#22C29C"/>
</g>
</svg>
