<svg width="250" height="94" viewBox="0 0 250 94" fill="none" xmlns="http://www.w3.org/2000/svg">
<path d="M37.0228 31.2216V19.4659H4.58008V72.901H16.7938V53.2827H36.6411V41.5269H16.7938V31.2216H37.0228ZM43.8572 72.901H55.3076V17.1758H43.8572V72.901ZM91.3965 34.733V38.3208C88.8774 35.4201 85.137 33.6643 80.0224 33.6643C70.0224 33.6643 61.7782 42.443 61.7782 53.817C61.7782 65.191 70.0224 73.9697 80.0224 73.9697C85.137 73.9697 88.8774 72.214 91.3965 69.3132V72.901H102.847V34.733H91.3965ZM82.3125 63.13C77.0453 63.13 73.2286 59.5422 73.2286 53.817C73.2286 48.0918 77.0453 44.504 82.3125 44.504C87.5797 44.504 91.3965 48.0918 91.3965 53.817C91.3965 59.5422 87.5797 63.13 82.3125 63.13ZM133.614 33.6643C128.576 33.6643 124.759 35.4964 122.698 38.3208V34.733H111.248V72.901H122.698V52.0613C122.698 46.6414 125.599 44.1987 129.797 44.1987C133.461 44.1987 136.438 46.4124 136.438 51.1452V72.901H147.889V49.4659C147.889 39.1605 141.324 33.6643 133.614 33.6643ZM178.118 45.7254V34.733H170.256V24.046L158.805 27.4811V34.733H152.698V45.7254H158.805V59.2368C158.805 69.9239 163.156 74.4277 178.118 72.901V62.5193C173.08 62.8246 170.256 62.5193 170.256 59.2368V45.7254H178.118ZM190.327 31.3743C194.067 31.3743 197.197 28.2445 197.197 24.504C197.197 20.7636 194.067 17.6338 190.327 17.6338C186.586 17.6338 183.456 20.7636 183.456 24.504C183.456 28.2445 186.586 31.3743 190.327 31.3743ZM184.601 72.901H196.052V34.733H184.601V72.901ZM215.881 41.5269V34.733H204.431V72.901H215.881V55.6491C215.881 48.0918 222.599 46.1834 227.332 46.9468V33.9697C222.522 33.9697 217.408 36.4124 215.881 41.5269Z" fill="white"/>
<path d="M239.173 73.9696C243.142 73.9696 246.425 70.6872 246.425 66.7177C246.425 62.7483 243.142 59.4658 239.173 59.4658C235.203 59.4658 231.921 62.7483 231.921 66.7177C231.921 70.6872 235.203 73.9696 239.173 73.9696Z" fill="#22C29C"/>
</svg>
